<?xml version="1.0" encoding="UTF-8"?>
<svg width="921px" height="700px" viewBox="0 0 921 700" version="1.1" xmlns="http://www.w3.org/2000/svg" xmlns:xlink="http://www.w3.org/1999/xlink">
    <!-- Generator: Sketch 49.3 (51167) - http://www.bohemiancoding.com/sketch -->
    <title>img-hero-pattern</title>
    <desc>Created with Sketch.</desc>
    <defs></defs>
    <g id="Page-1" stroke="none" stroke-width="1" fill="none" fill-rule="evenodd" stroke-opacity="0.1">
        <g id="Desktop-HD" transform="translate(-519.000000, 0.000000)" fill="#FFFFFF" stroke="#3D70B2">
            <g id="img-hero" transform="translate(506.000000, 0.000000)">
                <g id="img-hero-pattern">
                    <polyline id="Path-2-Copy-2" points="0.242258041 778.102134 90.4996692 268.29318 132.679652 225.117873 236.915412 191.625744 448.389564 14.2353263 518.490312 0 632.705485 57.1943288 636.242055 59.7716501 716.485703 65.6657487 754.133085 92.7903688 773.19315 110.63292 835.571623 100.936888 889.751712 53.3517043 899.349908 25.6278914 937 14.2353263 937 709.971896"></polyline>
                    <polygon id="0" points="11.7283475 745.370428 90.4996692 307.208752 132.679652 264.033445 236.915412 230.541316 448.389564 53.1508981 518.490312 38.9155718 632.705485 96.1099006 636.242055 98.6872219 716.485703 104.581321 754.133085 131.705941 773.19315 149.548492 835.571623 139.85246 889.751712 92.2672762 899.349908 64.5434633 937 53.1508981 937 748.887467"></polygon>
                    <polygon id="1" points="23.7225588 717.300505 90.4996692 346.124324 132.679652 302.949016 236.915412 269.456888 448.389564 92.06647 518.490312 77.8311436 632.705485 135.025472 636.242055 137.602794 716.485703 143.496892 754.133085 170.621512 773.19315 188.464064 835.571623 178.768032 889.751712 131.182848 899.349908 103.459035 937 92.06647 937 787.803039"></polygon>
                    <polygon id="2" points="30.7029028 720.019243 90.4996692 385.039895 132.679652 341.864588 236.915412 308.37246 448.389564 130.982042 518.490312 116.746715 632.705485 173.941044 636.242055 176.518366 716.485703 182.412464 754.133085 209.537084 773.19315 227.379636 835.571623 217.683604 889.751712 170.09842 899.349908 142.374607 937 130.982042 937 826.718611"></polygon>
                    <polyline id="3" points="38.1592063 720.221567 90.4996692 423.006307 132.679652 379.831 236.915412 346.338871 448.389564 168.948453 518.490312 154.713127 632.705485 211.907456 636.242055 214.484777 716.485703 220.378876 754.133085 247.503496 773.19315 265.346047 835.571623 255.650015 889.751712 208.064831 899.349908 180.341018 937 168.948453 937 864.685023"></polyline>
                    <polyline id="4" points="38.517696 761.056832 90.4996692 461.921879 132.679652 418.746572 236.915412 385.254443 448.389564 207.864025 518.490312 193.628699 632.705485 250.823028 636.242055 253.400349 716.485703 259.294448 754.133085 286.419068 773.19315 304.261619 835.571623 294.565587 889.751712 246.980403 899.349908 219.25659 937 207.864025 937 903.600594"></polyline>
                    <polygon id="Path-2" points="54.8508825 709.784707 90.4996692 500.837451 132.679652 457.662143 236.915412 424.170015 448.389564 246.779597 518.490312 232.544271 632.705485 289.738599 636.242055 292.315921 716.485703 298.210019 754.133085 325.334639 773.19315 343.177191 835.571623 333.481159 889.751712 285.895975 899.349908 258.172162 937 246.779597 937 942.516166"></polygon>
                </g>
            </g>
        </g>
    </g>
</svg>