<?xml version="1.0" encoding="UTF-8"?>
<svg width="24px" height="24px" viewBox="0 0 24 24" version="1.1" xmlns="http://www.w3.org/2000/svg" xmlns:xlink="http://www.w3.org/1999/xlink">
    <!-- Generator: sketchtool 49.3 (51167) - http://www.bohemiancoding.com/sketch -->
    <title>E1920092-7FC8-47DE-BB91-6757CAE3FCE4</title>
    <desc>Created with sketchtool.</desc>
    <defs></defs>
    <g id="Symbols" stroke="none" stroke-width="1" fill="none" fill-rule="evenodd">
        <g id="top-bar-menu-w/o-token" transform="translate(-1067.000000, -12.000000)" fill="#5596E6">
            <g id="top-bar-menu">
                <g id="balance" transform="translate(1067.000000, 10.000000)">
                    <g id="icn-poly" transform="translate(0.000000, 2.000000)">
                        <path d="M12,24 C5.372583,24 0,18.627417 0,12 C0,5.372583 5.372583,0 12,0 C18.627417,0 24,5.372583 24,12 C24,18.627417 18.627417,24 12,24 Z M22,7.16624041 L21.9595506,6.50858604 L21.7617978,7.05663135 L20.647191,8.008038 L19.3707865,8.20094995 L18.988764,7.84143223 L20.1033708,6.33321155 L21.2539326,6 L20.0134831,6.02630617 L18.211236,7.30215564 L16.5213483,7.18377786 L18.2157303,8.31494337 L19.0516854,8.88929485 L16.5078652,7.1443186 L14.1438202,6 L12.741573,6.27183047 L8.36853933,9.82316405 L6.26516854,10.4852028 L5.39775281,11.3489222 L3.84269663,11.3664596 L3.07865169,12.7606869 L2,13.0632079 L3.02022472,13.2035075 L3.96853933,11.9539642 L5.42921348,12.2521008 L5.40674157,13.584947 L4.6741573,15.5096821 L4.25617978,17.2897333 L3.80674157,18 L4.94831461,17.7544757 L4.81797753,17.0266715 L5.78426966,15.0712459 L7.65842697,14.3390574 L8.38202247,13.1684326 L9.60449438,12.2959445 L12.0269663,12.6466935 L14.4764045,11.5988308 L14.058427,13.2517355 L12.9707865,13.3481915 L12.6606742,14.7117282 L13.5955056,14.1023018 L15.1325843,13.4490318 L16.341573,11.6075996 L16.4134831,10.7307271 L17.0651685,11.3883814 L18.9483146,12.5370844 L20.0134831,12.0460358 L19.9505618,9.60394593 L19.6449438,8.661308 L21.0426966,8.31932773 L22,7.16624041 Z" id="Combined-Shape"></path>
                    </g>
                </g>
            </g>
        </g>
    </g>
</svg>