<?xml version="1.0" standalone="no"?>
<!DOCTYPE svg PUBLIC "-//W3C//DTD SVG 20010904//EN"
 "http://www.w3.org/TR/2001/REC-SVG-20010904/DTD/svg10.dtd">
<svg version="1.0" xmlns="http://www.w3.org/2000/svg"
 width="1229.000000pt" height="1229.000000pt" viewBox="0 0 1229.000000 1229.000000"
 preserveAspectRatio="xMidYMid meet">
<metadata>
Created by potrace 1.11, written by Peter Selinger 2001-2013
</metadata>
<g transform="translate(0.000000,1229.000000) scale(0.100000,-0.100000)"
fill="#000000" stroke="none">
<path d="M7260 9914 c-85 -18 -168 -35 -185 -37 -16 -3 -61 -12 -100 -20 -38
-9 -83 -18 -100 -21 -16 -2 -64 -11 -105 -20 -41 -8 -87 -17 -103 -20 -48 -8
-69 -18 -96 -41 -14 -12 -66 -56 -116 -97 -196 -161 -331 -274 -350 -291 -11
-11 -36 -31 -55 -46 -19 -14 -46 -36 -60 -48 -25 -22 -31 -27 -111 -93 -23
-19 -47 -40 -53 -45 -6 -6 -58 -48 -116 -95 -58 -46 -121 -98 -141 -115 -48
-41 -70 -59 -169 -140 -47 -38 -87 -72 -90 -75 -6 -6 -118 -100 -136 -114 -7
-5 -25 -20 -42 -35 -17 -14 -45 -37 -62 -51 -18 -14 -37 -29 -44 -35 -6 -5
-38 -32 -71 -60 -33 -27 -62 -52 -65 -55 -3 -3 -27 -23 -55 -45 -27 -21 -52
-42 -55 -45 -3 -4 -115 -98 -250 -209 -135 -111 -254 -210 -265 -219 -85 -72
-157 -132 -190 -157 -21 -16 -45 -37 -54 -45 -69 -67 -191 -146 -191 -124 0 4
-6 2 -12 -3 -10 -7 -100 -39 -138 -48 -3 -1 -12 -5 -20 -8 -8 -4 -71 -25 -140
-47 -69 -22 -134 -45 -145 -50 -11 -5 -65 -23 -120 -40 -55 -17 -104 -32 -110
-34 -5 -2 -13 -4 -18 -5 -4 0 -21 -8 -37 -16 -17 -9 -30 -13 -30 -9 0 4 -6 2
-12 -4 -7 -6 -17 -11 -23 -12 -14 -3 -13 -3 -198 -64 -92 -31 -173 -56 -180
-56 -12 0 -108 -97 -297 -299 -63 -68 -147 -157 -186 -198 l-72 -75 -258 -3
c-143 -2 -354 -4 -471 -6 -116 -1 -216 -5 -221 -8 -10 -7 -56 -94 -53 -100 2
-2 -1 -7 -6 -10 -13 -9 -74 -121 -67 -121 4 0 0 -8 -8 -17 -20 -23 -53 -86
-50 -95 1 -5 -2 -8 -8 -8 -5 0 -10 -4 -10 -8 0 -5 -25 -55 -56 -113 -110 -203
-143 -265 -179 -337 -25 -51 -41 -72 -51 -68 -8 3 -14 1 -14 -5 0 -6 -7 -9
-15 -5 -8 3 -15 1 -15 -3 0 -5 -19 -13 -42 -17 -49 -9 -48 -9 -68 -17 -14 -6
-190 -56 -214 -62 -6 -1 -22 -6 -36 -12 -14 -5 -73 -23 -132 -38 -59 -16 -105
-31 -102 -34 6 -6 3 -6 174 -32 36 -6 79 -13 95 -15 17 -3 44 -7 60 -9 17 -2
30 -5 30 -5 0 -1 14 -4 30 -6 28 -3 66 -9 125 -20 14 -3 43 -7 66 -10 l41 -6
91 124 c50 67 98 132 106 143 18 22 180 237 211 279 94 127 177 231 184 229 5
-1 21 -4 36 -7 16 -3 51 -10 79 -16 28 -6 62 -13 76 -15 25 -6 166 -33 205
-41 17 -3 296 -60 390 -79 17 -3 37 -8 45 -10 8 -2 20 -4 25 -4 6 -1 10 -108
10 -301 0 -165 4 -300 8 -300 5 0 5 -5 1 -11 -3 -6 -8 -59 -10 -118 -3 -108
-5 -128 -15 -146 -6 -10 -33 -85 -34 -95 -1 -13 -38 -108 -51 -132 -8 -16 -13
-28 -10 -28 4 0 -8 -36 -33 -95 -5 -11 -37 -96 -71 -190 -35 -93 -65 -174 -69
-180 -3 -5 -6 -15 -7 -21 -1 -6 -36 -105 -79 -220 -42 -115 -79 -216 -82 -224
-3 -8 -7 -24 -8 -35 -2 -11 -24 -109 -49 -217 -25 -108 -48 -208 -50 -222 -3
-14 -14 -65 -26 -113 -11 -49 -25 -106 -30 -128 -6 -22 -28 -121 -51 -220 -22
-99 -46 -187 -53 -195 -7 -8 -64 -98 -126 -200 -62 -102 -120 -193 -128 -202
-13 -15 -13 -18 -1 -18 13 0 327 64 544 110 50 11 103 22 119 24 16 3 34 10
39 15 9 9 -3 84 -40 251 -3 14 -7 36 -9 50 -2 14 -10 55 -17 92 -13 58 -12 71
1 100 14 30 148 307 258 533 24 49 44 95 44 102 0 7 5 13 10 13 6 0 10 6 10
13 0 6 27 67 60 135 33 67 60 127 60 132 0 6 5 10 10 10 6 0 10 9 10 20 0 11
5 20 12 20 6 0 9 3 5 6 -3 3 19 54 48 112 l54 107 113 44 c62 24 131 52 153
61 22 10 141 58 265 108 124 50 277 111 340 137 63 26 138 56 165 67 28 11 61
25 75 31 26 12 60 41 60 52 0 11 153 260 162 263 4 2 8 12 8 23 0 10 4 19 9
19 5 0 11 8 14 18 7 18 79 139 97 159 5 7 10 14 10 17 0 2 29 51 65 108 49 78
77 111 116 138 78 54 232 167 250 183 9 8 40 30 68 48 28 19 51 37 51 41 0 5
5 8 11 8 6 0 25 12 43 26 17 14 84 64 149 111 l118 85 167 -27 c92 -15 203
-34 247 -41 84 -15 130 -22 180 -30 17 -2 53 -9 80 -14 28 -5 64 -11 80 -14
61 -9 171 -27 195 -32 14 -3 36 -7 50 -9 14 -1 54 -8 90 -14 36 -7 82 -14 103
-17 21 -3 50 -9 63 -15 18 -6 23 -6 18 2 -4 8 -1 8 12 1 11 -5 39 -13 64 -16
25 -3 56 -9 70 -12 70 -17 114 -7 231 49 118 56 231 110 329 154 30 14 101 47
158 74 57 27 105 49 107 49 1 0 73 34 160 75 86 41 158 75 160 75 5 0 167 76
291 136 50 24 94 44 97 44 3 0 4 -10 1 -22 -3 -13 -7 -32 -9 -43 -3 -20 -14
-70 -19 -90 -2 -5 -6 -21 -9 -35 -4 -14 -9 -36 -12 -50 -2 -14 -16 -74 -30
-135 -26 -109 -31 -132 -39 -179 -2 -14 -7 -39 -12 -58 -4 -18 -8 -40 -9 -48
-1 -8 -5 -22 -8 -30 -7 -16 -15 -54 -24 -112 -3 -21 -9 -38 -14 -38 -5 0 -6
-7 -3 -15 3 -8 2 -20 -2 -27 -4 -7 -9 -22 -10 -33 -6 -56 -25 -104 -42 -103
-24 0 -217 -11 -217 -12 0 -1 -34 -4 -75 -6 -229 -12 -322 -18 -362 -23 -6 -1
-13 -25 -24 -86 -3 -16 -12 -59 -20 -95 -8 -36 -16 -76 -18 -90 -2 -14 -11
-61 -21 -105 -22 -104 -24 -114 -30 -150 -3 -16 -8 -37 -10 -45 -2 -8 -7 -31
-10 -50 -3 -19 -11 -55 -16 -80 -6 -25 -13 -58 -16 -75 -2 -16 -8 -45 -13 -64
-5 -19 -8 -36 -7 -38 2 -1 96 60 210 136 114 77 207 136 207 133 0 -4 4 -2 8
4 27 41 349 213 372 199 4 -3 13 2 20 10 7 8 16 15 21 15 5 0 39 14 76 31 64
29 424 186 468 204 11 5 23 7 28 7 4 -1 7 2 7 7 0 8 46 24 54 19 2 -2 13 6 25
16 12 11 21 15 21 10 0 -5 10 7 22 26 38 60 230 357 354 545 43 66 81 125 83
130 2 6 15 24 28 41 12 17 23 36 23 42 0 6 3 12 8 14 10 4 142 206 142 217 0
5 7 11 15 15 8 3 15 12 15 21 0 8 5 15 10 15 6 0 10 7 10 15 0 8 5 15 12 15 6
0 8 3 5 7 -4 3 2 16 13 28 15 16 21 40 25 110 9 136 16 262 19 341 1 38 6 75
9 81 4 6 4 19 0 30 -6 16 -5 17 13 3 10 -8 21 -18 24 -21 42 -55 358 -370 395
-394 28 -18 273 -173 545 -344 272 -170 500 -314 505 -318 52 -42 63 -44 108
-24 23 11 141 65 262 121 121 56 259 120 307 142 l87 41 -4 51 c-4 47 -14 255
-20 401 -2 55 -13 283 -20 415 -2 30 -6 123 -10 205 -3 83 -8 186 -11 230 -3
44 -5 114 -6 155 -1 51 -10 102 -29 160 -15 47 -48 153 -74 235 -25 83 -53
170 -61 194 -7 25 -13 46 -11 47 1 1 63 20 137 42 74 22 263 77 419 123 l283
83 45 56 c25 30 57 70 71 89 15 18 32 38 37 45 6 6 48 58 95 116 46 58 87 107
90 110 3 3 13 14 21 26 12 18 40 53 109 134 8 10 26 32 40 49 14 17 37 46 53
64 27 31 27 35 22 122 -2 50 -7 142 -11 205 -3 63 -8 117 -10 119 -5 5 -16
-24 -74 -189 -55 -158 -45 -144 -195 -275 -38 -33 -76 -67 -85 -75 -8 -8 -29
-25 -45 -38 -17 -13 -47 -39 -67 -58 -20 -19 -42 -34 -48 -34 -5 0 -10 -7 -10
-15 0 -8 -5 -15 -10 -15 -6 0 -24 -13 -40 -30 -16 -16 -31 -30 -34 -30 -2 0
-24 -19 -49 -42 -71 -68 -147 -133 -157 -134 -6 -1 -11 -2 -12 -3 -2 -1 -21
-4 -43 -6 -21 -3 -55 -7 -75 -11 -19 -3 -46 -7 -60 -9 -14 -1 -50 -5 -80 -9
-30 -3 -66 -8 -80 -10 -29 -5 -95 -14 -160 -21 -25 -3 -56 -7 -70 -10 -24 -3
-77 -10 -167 -20 -38 -4 -45 -1 -91 43 -130 122 -152 144 -152 153 0 5 41 66
92 136 97 137 137 193 241 343 37 52 73 104 81 115 8 11 67 94 131 185 64 91
122 168 128 171 7 4 84 27 172 52 150 43 233 66 545 153 155 43 159 45 85 39
-33 -3 -123 -7 -200 -11 -77 -3 -169 -7 -205 -9 -92 -5 -367 -18 -417 -19 -34
-1 -58 -12 -130 -63 -215 -150 -659 -463 -668 -470 -5 -5 -26 -19 -45 -33 -19
-13 -37 -27 -40 -30 -3 -3 -32 -23 -65 -45 -33 -22 -68 -48 -79 -57 -11 -10
-23 -18 -26 -18 -4 0 -31 -18 -60 -40 l-54 -40 -75 6 c-42 4 -83 6 -91 6 -8 0
-22 2 -30 4 -8 3 -55 7 -105 10 -49 3 -106 7 -125 9 -53 5 -190 17 -235 20
-22 2 -40 3 -40 4 0 1 -33 4 -73 6 -71 5 -163 12 -227 19 -16 2 -75 27 -130
56 -55 29 -167 86 -250 128 -82 41 -153 80 -157 86 -4 6 -8 7 -8 2 0 -5 -6 -4
-12 1 -7 6 -107 59 -223 118 -228 117 -518 266 -631 325 -39 21 -82 37 -95 37
-13 -1 -94 -16 -179 -33z"/>
</g>
</svg>
